<svg width="181" height="22" viewBox="0 0 181 22" fill="none" xmlns="http://www.w3.org/2000/svg">
<path d="M11.2593 21.9401C9.65508 21.9401 8.16968 21.6707 6.80312 21.132C5.43655 20.5732 4.23833 19.805 3.20846 18.8272C2.19839 17.8295 1.40618 16.6621 0.831822 15.3252C0.277274 13.9882 0 12.5415 0 10.985C0 9.40862 0.277274 7.96191 0.831822 6.6449C1.40618 5.30794 2.19839 4.15057 3.20846 3.17279C4.23833 2.19501 5.42665 1.42676 6.77341 0.868028C8.13997 0.309298 9.61547 0.0299341 11.1999 0.0299341C12.8635 0.0299341 14.3588 0.299322 15.6858 0.838097C17.0127 1.35692 18.1813 2.08526 19.1913 3.02313L15.6264 6.61497C15.1312 6.05624 14.5173 5.61723 13.7845 5.29796C13.0517 4.97868 12.1902 4.81905 11.1999 4.81905C10.3483 4.81905 9.56595 4.95873 8.85296 5.2381C8.15978 5.51746 7.55572 5.93651 7.04078 6.49524C6.52584 7.03401 6.11983 7.68254 5.82275 8.44082C5.54548 9.19909 5.40684 10.0472 5.40684 10.985C5.40684 11.9229 5.54548 12.771 5.82275 13.5293C6.11983 14.2875 6.52584 14.946 7.04078 15.5048C7.55572 16.0435 8.15978 16.4626 8.85296 16.7619C9.56595 17.0413 10.3483 17.181 11.1999 17.181C12.1902 17.181 13.0616 17.0313 13.8142 16.732C14.5668 16.4127 15.2105 15.9637 15.7452 15.385L19.3102 18.9769C18.2803 19.9147 17.1118 20.6431 15.8046 21.1619C14.5173 21.6807 13.0022 21.9401 11.2593 21.9401Z" fill="black"/>
<path d="M19.542 21.6109L27.7117 0.389116H32.8512L40.9317 21.6109H35.3763L29.2862 3.77143H31.2172L24.9786 21.6109H19.542Z" fill="black"/>
<path d="M42.9036 21.6109V0.389116H48.2213V21.6109H42.9036ZM47.1221 21.6109V17.0014H57.2822V21.6109H47.1221Z" fill="black"/>
<path d="M59.7594 21.6109V0.389116H65.0771V21.6109H59.7594Z" fill="black"/>
<path d="M68.811 21.6109V0.389116H74.1287V21.6109H68.811ZM73.0295 13.6789V9.15919H83.457V13.6789H73.0295ZM73.0295 4.90884V0.389116H83.9323V4.90884H73.0295Z" fill="black"/>
<path d="M96.7283 22C95.1043 22 93.609 21.7206 92.2424 21.1619C90.8759 20.6032 89.6776 19.8249 88.6478 18.8272C87.6377 17.8295 86.8455 16.6621 86.2711 15.3252C85.6968 13.9683 85.4096 12.5116 85.4096 10.9551C85.4096 9.39864 85.6869 7.96191 86.2414 6.6449C86.8158 5.30794 87.608 4.14059 88.6181 3.14286C89.6281 2.14512 90.8165 1.37687 92.183 0.838097C93.5496 0.279366 95.0449 0 96.6689 0C98.293 0 99.7883 0.279366 101.155 0.838097C102.521 1.37687 103.71 2.14512 104.72 3.14286C105.73 4.14059 106.512 5.30794 107.067 6.6449C107.641 7.98186 107.928 9.42857 107.928 10.985C107.928 12.5415 107.641 13.9882 107.067 15.3252C106.512 16.6621 105.73 17.8395 104.72 18.8571C103.71 19.8549 102.521 20.6331 101.155 21.1918C99.8081 21.7306 98.3326 22 96.7283 22ZM96.6689 17.2109C97.8572 17.2109 98.8871 16.9515 99.7586 16.4327C100.63 15.9138 101.303 15.1855 101.779 14.2476C102.254 13.3098 102.492 12.2122 102.492 10.9551C102.492 10.0372 102.353 9.19909 102.076 8.44082C101.818 7.68254 101.432 7.03401 100.917 6.49524C100.402 5.93651 99.7882 5.50748 99.0753 5.20816C98.3623 4.90884 97.5602 4.75919 96.6689 4.75919C95.4806 4.75919 94.4507 5.0186 93.5793 5.53742C92.7079 6.03628 92.0345 6.75465 91.5592 7.69252C91.0838 8.63039 90.8462 9.71792 90.8462 10.9551C90.8462 11.9129 90.9749 12.781 91.2324 13.5592C91.5096 14.3175 91.9057 14.976 92.4207 15.5347C92.9356 16.0735 93.5496 16.4925 94.2626 16.7918C94.9756 17.0712 95.7777 17.2109 96.6689 17.2109Z" fill="black"/>
<path d="M114.806 13.0204V9.18912H118.817C119.688 9.18912 120.352 8.97959 120.807 8.56055C121.283 8.12154 121.52 7.53288 121.52 6.79456C121.52 6.07619 121.283 5.49751 120.807 5.0585C120.352 4.59955 119.688 4.37007 118.817 4.37007H114.806V0.389116H119.56C120.986 0.389116 122.233 0.658504 123.303 1.19728C124.392 1.73606 125.244 2.47438 125.858 3.41225C126.472 4.35011 126.779 5.44762 126.779 6.70476C126.779 7.9619 126.462 9.06939 125.828 10.0272C125.214 10.9651 124.352 11.7034 123.243 12.2422C122.134 12.761 120.837 13.0204 119.352 13.0204H114.806ZM110.588 21.6109V0.389116H115.906V21.6109H110.588ZM121.996 21.6109L115.876 12.5116L120.659 11.3442L128.145 21.6109H121.996Z" fill="black"/>
<path d="M129.881 21.6109V0.389116H133.594L135.198 4.72925V21.6109H129.881ZM144.408 21.6109L132.109 5.86667L133.594 0.389116L145.923 16.1333L144.408 21.6109ZM144.408 21.6109L143.041 17.151V0.389116H148.359V21.6109H144.408Z" fill="black"/>
<path d="M152.103 21.6109V0.389116H157.421V21.6109H152.103Z" fill="black"/>
<path d="M159.61 21.6109L167.78 0.389116H172.919L181 21.6109H175.445L169.354 3.77143H171.286L165.047 21.6109H159.61Z" fill="black"/>
</svg>
