<svg width="195" height="104" viewBox="0 0 195 104" fill="none" xmlns="http://www.w3.org/2000/svg">
<path d="M53.6397 104C45.9971 104 38.9206 102.721 32.4103 100.164C25.8999 97.5119 20.1915 93.8652 15.2852 89.224C10.4732 84.4882 6.69906 78.9472 3.96283 72.6011C1.32094 66.255 0 59.388 0 52C0 44.5173 1.32094 37.6503 3.96283 31.3989C6.69906 25.0528 10.4732 19.5592 15.2852 14.918C20.1915 10.2769 25.8527 6.63023 32.2687 3.97814C38.7791 1.32604 45.8084 0 53.3566 0C61.2823 0 68.4059 1.27869 74.7276 3.83607C81.0492 6.29872 86.616 9.75591 91.428 14.2076L74.4445 31.2568C72.0857 28.6047 69.1607 26.5209 65.6697 25.0055C62.1786 23.49 58.0743 22.7322 53.3566 22.7322C49.2994 22.7322 45.5725 23.3953 42.1758 24.7213C38.8734 26.0474 35.9957 28.0364 33.5425 30.6885C31.0893 33.2459 29.1551 36.3242 27.7398 39.9235C26.4188 43.5228 25.7584 47.5483 25.7584 52C25.7584 56.4517 26.4188 60.4772 27.7398 64.0765C29.1551 67.6758 31.0893 70.8015 33.5425 73.4536C35.9957 76.0109 38.8734 78 42.1758 79.4208C45.5725 80.7468 49.2994 81.4099 53.3566 81.4099C58.0743 81.4099 62.2258 80.6995 65.8112 79.2787C69.3966 77.7632 72.4631 75.6321 75.0106 72.8853L91.9942 89.9344C87.0878 94.3862 81.521 97.8434 75.2937 100.306C69.1607 102.769 61.9427 104 53.6397 104Z" fill="black"/>
<path d="M93.0988 102.437L132.019 1.70491H156.504L195 102.437H168.534L139.52 17.7596H148.72L118.999 102.437H93.0988Z" fill="black"/>
</svg>
